<svg aria-hidden="true" style="position: absolute; width: 0; height: 0; overflow: hidden;" version="1.1" xmlns="http://www.w3.org/2000/svg" xmlns:xlink="http://www.w3.org/1999/xlink">
    <defs>
        <symbol id="icon-anextour" viewBox="0 0 190 32">
            <path d="M113.29 1.608l-2.771 1.163v5.247h-4.244l0.113 5.002 4.131 0.112 0.002 5.338c0.001 6.075 0.149 7.334 1.083 9.265 0.661 1.367 2.74 3.82 3.237 3.82 0.136 0 0.875-0.766 1.641-1.703 2.184-2.671 2.067-2.33 1.124-3.267-1.414-1.406-1.444-1.571-1.444-7.871v-5.596h4.031v-5.1h-4.022l-0.055-3.786-0.055-3.786-2.771 1.163zM11.569 3.695c-5.366 0.735-9.835 4.572-11.217 9.633-0.422 1.545-0.471 4.757-0.095 6.262 0.148 0.593 0.635 1.827 1.083 2.742 0.675 1.381 1.125 1.964 2.65 3.44 2.835 2.744 5.46 3.812 9.38 3.818 2.998 0.005 5.521-0.785 7.899-2.473 0.514-0.364 0.989-0.663 1.057-0.663s1.053 0.665 2.19 1.478l2.067 1.478 0.053-6.494c0.029-3.571 0.029-9.35 0-12.84l-0.053-6.346-4.316 3.141-0.95-0.707c-2.604-1.935-6.481-2.917-9.748-2.47zM29.707 16.636v12.958h5.24v-8.068c0-5.616 0.072-8.302 0.237-8.838 0.31-1.007 1.652-2.475 2.677-2.928 1.882-0.832 4.769-0.248 6.042 1.222 1.126 1.3 1.12 1.245 1.12 10.27v8.342h5.441l-0.004-7.797c-0.002-4.288-0.095-8.414-0.206-9.169-0.46-3.132-2.709-6.087-5.669-7.452-3.349-1.544-7.432-1.266-10.378 0.707-0.587 0.393-0.977 0.538-1.136 0.421-0.133-0.098-0.945-0.728-1.804-1.402l-1.562-1.224v12.958zM63.263 4.216c-2.275 0.535-4.065 1.568-6.070 3.502-1.439 1.388-1.994 2.089-2.568 3.242-1.007 2.024-1.396 3.663-1.396 5.884 0 3.551 1.116 6.25 3.667 8.872 1.8 1.849 3.445 2.887 5.658 3.568 4.853 1.494 9.98 0.238 13.588-3.33 0.976-0.966 2.458-3.055 2.593-3.658 0.023-0.103-0.593-0.539-1.369-0.971s-1.788-0.997-2.249-1.258l-0.839-0.474-0.631 1.087c-0.811 1.399-2.135 2.626-3.591 3.328-1.493 0.72-4.195 0.902-5.962 0.402-0.626-0.177-1.137-0.392-1.137-0.479 0-0.128 13.073-11.464 14.86-12.886 0.503-0.401 0.504-0.408 0.153-1.079-0.615-1.172-3.482-3.746-5.077-4.558-2.811-1.43-6.621-1.903-9.631-1.195zM175.208 16.942v13.043h5.643v-16.595l0.531-1.037c0.996-1.944 3.234-2.905 5.358-2.3 0.577 0.165 1.065 0.281 1.084 0.259 0.164-0.188 2.298-4.49 2.298-4.632 0-0.102-0.521-0.385-1.16-0.63-0.945-0.363-1.565-0.446-3.375-0.455-2.499-0.013-3.52 0.244-5.439 1.368l-1.158 0.678-1.768-1.372c-0.973-0.755-1.824-1.372-1.891-1.372s-0.123 5.869-0.123 13.043zM79.887 4.2c0 0.057 1.451 2.567 3.224 5.578s3.224 5.513 3.224 5.562c0 0.085-7.489 12.899-8.305 14.21l-0.4 0.642 6.359-0.108 2.591-4.413c1.425-2.427 2.666-4.536 2.758-4.686 0.117-0.19 1.001 1.153 2.934 4.462l2.766 4.735h3.117c1.714 0 3.079-0.066 3.034-0.147s-1.978-3.407-4.294-7.391c-2.316-3.984-4.195-7.299-4.174-7.366s1.403-2.47 3.073-5.34c1.669-2.87 3.092-5.361 3.16-5.535 0.113-0.285-0.188-0.312-2.972-0.263l-3.097 0.054-1.631 2.797c-0.897 1.538-1.669 2.834-1.716 2.88s-0.855-1.234-1.795-2.844l-1.71-2.928-3.073-0.002c-1.69-0.001-3.073 0.045-3.073 0.103zM133.079 4.576c-2.502 0.228-2.548 0.241-4.203 1.198-3.258 1.885-5.46 4.050-5.46 5.368 0 0.331-0.074 0.602-0.165 0.602-0.269 0-0.843 2.023-0.843 2.969 0 0.481-0.098 0.971-0.219 1.088-0.352 0.342-0.457 2.446-0.196 3.909 0.628 3.517 2.447 6.195 5.638 8.304 1.007 0.665 1.521 0.872 2.314 0.933 0.56 0.043 1.174 0.215 1.363 0.381s0.429 0.252 0.533 0.189c0.104-0.063 0.441 0.113 0.749 0.391l0.56 0.505 3.466-0.097c1.906-0.053 3.638-0.183 3.849-0.289s0.955-0.443 1.656-0.749c0.701-0.306 1.668-0.913 2.149-1.348s1.2-1.037 1.598-1.339c0.398-0.301 0.723-0.663 0.723-0.803s0.188-0.421 0.418-0.624c0.511-0.45 1.466-2.363 1.306-2.616-0.064-0.101 0.023-0.318 0.193-0.484 0.447-0.435 0.796-2.424 0.489-2.785-0.219-0.256-0.126-0.363 0.264-0.303 0.46 0.071-0.047-4.161-0.632-5.273-0.199-0.378-0.421-0.923-0.494-1.213s-0.315-0.582-0.536-0.651c-0.274-0.085-0.403-0.297-0.403-0.663 0-0.296-0.18-0.709-0.401-0.918-1.064-1.010-1.197-1.099-1.433-0.957-0.173 0.104-0.211 0.053-0.125-0.167 0.082-0.208-0.084-0.489-0.485-0.817-0.335-0.275-0.677-0.5-0.76-0.5s-0.454-0.265-0.827-0.588c-0.372-0.324-0.775-0.588-0.894-0.588s-0.651-0.225-1.182-0.5c-0.897-0.465-1.007-0.48-1.558-0.212-0.337 0.164-0.643 0.21-0.708 0.108-0.063-0.099-0.018-0.18 0.099-0.18s0.213-0.066 0.213-0.147c-0.001-0.209-1.238-0.268-1.497-0.071-0.119 0.090-1.032 0.216-2.030 0.278-1.633 0.102-1.751 0.088-1.187-0.149 0.859-0.359 1.972-1.568 1.338-1.453-0.083 0.015-1.289 0.131-2.68 0.258zM151.634 12.872c0.002 4.288 0.095 8.414 0.206 9.169 1.020 6.94 9.354 10.719 15.584 7.068 0.651-0.381 1.273-0.693 1.382-0.693s0.892 0.556 1.739 1.236c0.847 0.68 1.653 1.303 1.792 1.384 0.2 0.118 0.252-2.514 0.252-12.906v-13.055h-5.643l-0.002 8.189c-0.002 8.179-0.002 8.19-0.475 9.177-0.82 1.714-2.314 2.64-4.259 2.64-1.389 0-2.388-0.392-3.4-1.333-1.553-1.446-1.528-1.276-1.533-10.484l-0.005-8.189h-5.643l0.004 7.796zM133.492 6.132c0 0.041-0.224 0.117-0.498 0.168s-0.45 0.017-0.391-0.075c0.103-0.163 0.889-0.244 0.889-0.093zM132.082 6.449c0 0.108-0.091 0.196-0.202 0.196s-0.201-0.088-0.201-0.196 0.091-0.196 0.201-0.196c0.111 0 0.202 0.088 0.202 0.196zM129.361 7.862c-0.333 0.231-1.126 0.931-1.763 1.556s-1.159 1.060-1.159 0.967c0-0.093 0.225-0.376 0.5-0.63s0.502-0.563 0.504-0.686c0.006-0.385 1.113-1.401 1.628-1.496 0.878-0.161 0.903-0.137 0.29 0.289zM16.751 9.467c1.553 0.694 3.284 2.401 4.044 3.988 0.477 0.996 0.543 1.373 0.54 3.095-0.002 1.585-0.092 2.179-0.468 3.096-0.65 1.587-2.321 3.294-4.023 4.108-1.269 0.608-1.454 0.641-3.559 0.637-2.037-0.004-2.32-0.052-3.43-0.577-6.572-3.109-5.954-12.561 0.964-14.736 0.531-0.167 1.567-0.249 2.764-0.219 1.615 0.040 2.111 0.135 3.166 0.607zM69.76 9.583c0.582 0.245 1.052 0.5 1.044 0.568s-2.61 2.357-5.782 5.087l-5.768 4.964-0.3-0.551c-0.401-0.736-0.542-3.576-0.243-4.877 0.524-2.278 2.783-4.627 5.199-5.405 1.603-0.516 4.354-0.415 5.85 0.214zM138.525 9.898c5.065 1.464 7.573 7.097 5.242 11.773-1.609 3.226-5.612 5.26-9.105 4.628-6.829-1.236-9.647-9-5.066-13.959 2.19-2.371 5.779-3.352 8.93-2.442zM126.951 24.507c0.185 0.292-0.030 0.451-0.415 0.307-0.178-0.066-0.267-0.21-0.198-0.319 0.163-0.257 0.447-0.252 0.614 0.012z"></path>
        </symbol>
        <symbol id="icon-arrow" viewBox="0 0 32 32">
            <path d="M16 0.762l2 2.048-11.762 11.762h25v2.857h-25l11.762 11.762-2 2.048-15.238-15.238 15.238-15.238z"></path>
        </symbol>
        <symbol id="icon-cross" viewBox="0 0 32 32">
            <path d="M5.25 28.85l-2.1-2.1 11.55-11.55-11.55-11.55 2.1-2.1 11.55 11.55 11.55-11.55 2.1 2.1-11.55 11.55 11.55 11.55-2.1 2.1-11.55-11.55-11.55 11.55z"></path>
        </symbol>
        <symbol id="icon-menu" viewBox="0 0 136 32">
            <path d="M0 15.451v7.756c0 1.405 1.181 2.545 2.637 2.545h7.117v-13.75l-9.755 3.449z"></path>
            <path d="M10.161 12.002l3.484 5.048v8.702l-3.484-4.617v-9.133z"></path>
            <path d="M14.053 9.768v15.984h9.76l-0.005-19.433-9.755 3.449z"></path>
            <path d="M24.214 6.318l3.967 6.646v12.787l-3.965-6.837-0.002-12.597z"></path>
            <path d="M28.588 3.907v21.845h8.406c1.456 0 2.637-1.139 2.637-2.545v-23.207l-11.043 3.907z"></path>
            <path d="M48.451 6.984h9.402c2.136 0 3.846 0.577 5.099 1.759 1.282 1.155 1.909 2.694 1.909 4.591 0 1.952-0.655 3.491-1.966 4.673-1.281 1.182-3.048 1.759-5.242 1.759h-4.502v5.95h-4.7v-18.733zM53.151 15.973h4.16c1.823 0 2.934-1.017 2.934-2.584 0-1.512-1.139-2.529-2.934-2.529h-4.16v5.113z"></path>
            <path d="M70.91 4.234v16.467c0 0.742 0.541 1.209 1.367 1.209 0.342 0 0.883-0.137 1.653-0.385l0.712 3.436c-1.225 0.578-2.336 0.852-3.362 0.852-2.963 0-4.929-1.924-4.929-4.783v-16.797h4.558z"></path>
            <path d="M89.182 19.629h-10.484c0.37 1.65 1.567 2.667 3.077 2.667 1.425 0 2.45-0.523 3.048-1.595l4.045 0.797c-1.225 2.859-3.761 4.316-7.094 4.316-2.108 0-3.903-0.687-5.356-2.034-1.453-1.374-2.194-3.134-2.194-5.278 0-2.117 0.741-3.876 2.194-5.251s3.247-2.062 5.384-2.062c2.080 0 3.817 0.66 5.214 2.007s2.136 3.107 2.165 5.306v1.127zM78.784 16.935h5.897c-0.428-1.429-1.51-2.172-2.877-2.172-1.339 0-2.593 0.825-3.020 2.172z"></path>
            <path d="M101.244 11.519l-0.199 4.398h-0.826c-3.276 0-4.928 1.732-4.928 5.168v4.658h-4.558v-14.562h4.558v3.059c1.168-1.897 2.82-2.832 4.928-2.832 0.37 0 0.712 0.027 1.025 0.11z"></path>
            <path d="M117.616 4.234v21.168h-4.558v-1.182c-1.14 1.072-2.621 1.594-4.444 1.594-1.937 0-3.59-0.687-4.957-2.034-1.339-1.374-2.023-3.134-2.023-5.278 0-2.117 0.684-3.876 2.023-5.251 1.367-1.374 3.020-2.062 4.957-2.062 1.823 0 3.304 0.522 4.444 1.595v-8.55h4.558zM112.003 21.086c0.713-0.687 1.054-1.539 1.054-2.584 0-1.017-0.342-1.87-1.054-2.557-0.684-0.687-1.51-1.017-2.45-1.017-2.023 0-3.447 1.484-3.447 3.574 0 2.117 1.424 3.574 3.447 3.574 0.941 0 1.767-0.33 2.45-0.99z"></path>
            <path d="M135.619 11.192l-9.275 20.808h-4.928l3.162-7.065-6.102-13.744h4.901l3.565 8.466 3.777-8.466h4.901z"></path>
        </symbol>
        <symbol id="icon-plerdy_logo" viewBox="0 0 49 32">
            <path d="M0.533 18.509v9.291c0 1.683 1.406 3.049 3.142 3.049h8.478v-16.472l-11.62 4.132z"></path>
            <path d="M12.637 14.378l4.15 6.047v10.425l-4.15-5.531v-10.94z"></path>
            <path d="M17.273 11.701v19.148h11.626l-0.006-23.279-11.62 4.132z"></path>
            <path d="M29.377 7.569l4.725 7.962v15.318l-4.723-8.19-0.003-15.090z"></path>
            <path d="M34.587 4.681v26.169h10.013c1.735 0 3.141-1.365 3.141-3.049v-27.801l-13.154 4.681z"></path>
        </symbol>
            <symbol id="icon-prom" viewBox="0 0 118 32">
            <path d="M0.050 12.745l-0.050 12.389h25.934v-24.779h-25.835l-0.050 12.389zM20.087 12.745v6.783h-14.146v-13.565h14.146v6.783zM75.964 7.683c-3.474 0.724-6.464 3.368-7.329 6.481-0.303 1.092-0.335 3.308-0.063 4.438 0.659 2.742 3.155 5.329 6.166 6.391 1.583 0.559 5.317 0.553 6.916-0.010 1.527-0.538 2.696-1.29 3.927-2.528 1.751-1.76 2.401-3.39 2.404-6.029 0.003-2.029-0.486-3.567-1.594-5.010-2.393-3.117-6.435-4.564-10.427-3.733zM42.193 7.856c-1.35 0.292-2.259 0.774-2.954 1.566l-0.479 0.546v-2.017h-5.281v23.513h5.281l0.006-8.591 0.39 0.584c0.575 0.86 2.4 1.665 4.084 1.8 3.73 0.3 6.971-1.46 8.604-4.671 2.093-4.114 0.797-9.049-3.040-11.58-1.745-1.151-4.439-1.62-6.611-1.15zM63.878 7.855c-1.062 0.323-2.191 1.082-2.666 1.792l-0.378 0.566-0.003-1.13-0.003-1.13h-5.281v17.002h5.281v-4.489c0-5.183 0.134-5.92 1.267-6.975 0.926-0.863 2.139-1.233 3.866-1.179l1.374 0.043v-4.673l-1.32-0.037c-0.726-0.020-1.687 0.075-2.136 0.211zM98.905 7.84c-1.076 0.369-1.99 0.979-2.412 1.61l-0.388 0.582-0.003-1.040-0.003-1.040h-5.281v17.002h5.281l0.004-5.2c0.004-5.71 0.069-6.089 1.212-7.099 0.433-0.383 0.694-0.452 1.703-0.452 0.924 0 1.286 0.081 1.614 0.362 0.88 0.752 0.937 1.175 0.937 6.958v5.432h5.26l0.057-5.29c0.054-4.952 0.083-5.336 0.451-6.014 0.536-0.985 1.427-1.537 2.482-1.537 1.093 0 1.853 0.448 2.316 1.364 0.346 0.686 0.373 1.128 0.373 6.108v5.369h5.311l-0.064-6.285-0.064-6.285-0.488-1.113c-1.172-2.673-3.252-3.838-6.478-3.627-2.116 0.139-3.2 0.547-4.332 1.633-0.641 0.615-0.967 0.821-1.025 0.648-0.216-0.644-1.668-1.76-2.658-2.042-1.219-0.347-2.862-0.365-3.806-0.042zM80.111 12.41c1.697 0.826 2.647 2.27 2.659 4.042 0.027 3.856-4.537 5.912-7.526 3.389-1.136-0.959-1.582-1.892-1.587-3.321-0.006-1.626 0.612-2.817 1.926-3.714 1.226-0.837 3.255-1.015 4.528-0.395zM44.844 12.557c2.057 0.824 3.116 2.887 2.581 5.025-0.184 0.737-0.444 1.139-1.211 1.875-0.821 0.787-1.147 0.97-2.046 1.149-3.527 0.702-6.483-2.119-5.527-5.274 0.347-1.147 1.3-2.19 2.461-2.696 0.942-0.41 2.816-0.45 3.742-0.079z"></path>
        </symbol>
    </defs>
</svg>
